<svg width="1800" height="1294" viewBox="0 0 1800 1294" fill="none" xmlns="http://www.w3.org/2000/svg">
<path d="M581.86 811.262C599.126 633.508 687.027 440.136 829.372 266.767C884.72 199.359 949.096 142.791 1020.71 98.636C1089.69 56.11 1162.41 26.845 1236.85 11.653C1274.92 3.88495 1312.43 0.00195312 1349.13 0.00195312C1383.8 0.00195312 1417.76 3.47095 1450.74 10.407C1483.68 17.333 1514.99 27.6039 1544.5 41.1289C1564.17 50.1489 1562.82 78.6109 1542.37 85.7169C1468.39 111.432 1400.99 150.66 1343.89 201.674C1260.2 276.439 1203.37 372.344 1179.53 479.02C1168.09 530.209 1163.69 583.796 1159.45 635.618C1154.78 692.567 1149.96 751.454 1135.64 805.091C1107.14 911.957 1038.86 1007.24 938.178 1080.63C883.111 1120.79 817.443 1155.01 742.45 1182.69C717.522 1191.89 689.552 1184.32 672.616 1163.84C600.045 1076.1 568.038 953.553 581.86 811.262ZM1756.69 702.931C1727.32 781.773 1684.36 855.928 1629.02 923.336C1560.37 1006.94 1482.83 1079.34 1398.56 1138.5C1317.38 1195.49 1233.59 1237.74 1149.51 1264.08C1066.09 1290.22 986.808 1299.3 913.888 1291.06C867.784 1285.85 825.477 1273.8 787.39 1255.08C768.9 1245.99 769.886 1219.38 788.972 1211.62C854.894 1184.83 913.522 1152.82 963.982 1116.02C1072.85 1036.65 1146.84 933.04 1177.96 816.381C1193.29 758.949 1198.28 698.07 1203.1 639.195C1207.22 588.857 1211.49 536.805 1222.27 488.573C1244.1 390.88 1296.25 302.965 1373.07 234.333C1439.42 175.054 1520.95 132.932 1610.86 111.168C1631.48 106.178 1653.14 112.286 1668.11 127.314C1706.61 165.97 1737.28 211.771 1759.54 263.952C1786.76 327.778 1800.35 398.446 1799.94 473.994C1799.53 549.974 1784.98 626.999 1756.69 702.931Z" fill="white"/>
<path d="M772.901 1284.56C752.591 1274.57 740.46 1254.33 741.259 1231.73C741.445 1226.47 742.321 1221.39 743.81 1216.58C736.31 1218.46 728.613 1219.4 720.829 1219.4C692.308 1219.4 665.505 1206.79 647.308 1184.78C608.013 1137.27 579.656 1080.57 563.036 1016.22C546.602 952.601 541.927 882.573 549.164 808.089C555.46 743.218 570.777 676.442 594.36 609.337C590.802 568.531 586.346 527.32 577.685 488.573C555.853 390.878 503.705 302.96 426.889 234.333C360.54 175.046 279.005 132.926 189.094 111.16C168.478 106.178 146.81 112.288 131.843 127.309C93.3468 165.969 62.6688 211.767 40.4208 263.949C13.1918 327.78 -0.396207 398.443 0.00879251 473.989C0.424793 549.973 14.9758 626.997 43.2558 702.926C72.6308 781.768 115.594 855.923 170.94 923.334C239.588 1006.94 317.127 1079.33 401.399 1138.5C482.573 1195.49 566.363 1237.74 650.438 1264.08C698.251 1279.06 744.706 1288.43 789.377 1292.16C783.806 1289.76 778.309 1287.22 772.901 1284.56ZM779.24 98.637C710.263 56.112 637.542 26.846 563.102 11.65C525.033 3.88699 487.534 0 450.823 0C416.148 0 382.197 3.471 349.208 10.401C316.274 17.331 284.961 27.601 255.454 41.123C235.779 50.145 237.137 78.611 257.578 85.717C331.569 111.436 398.969 150.654 456.067 201.675C539.748 276.433 596.583 372.343 620.429 479.016C623.747 493.83 626.462 508.851 628.761 523.971C671.888 429.024 730.989 334.832 803.984 245.918C826.418 218.59 850.286 192.97 875.49 169.168C845.14 143.012 812.984 119.45 779.24 98.637Z" fill="white"/>
</svg>
